@startuml
skinparam monochrome true
skinparam linetype ortho
skinparam packageStyle rectangle
skinparam shadowing false

'left to right direction

skinparam classAttributeIconSize 0

hide circle
hide methods

title Domain Model - US004

class Owner{
name
passportNumber
}

class Agent{
name
passportNumber
}

class CompanyBranch{
ID
designation
}

class Contacts{
phoneNumber
emailAddress
}

class Address{
doorNumber
floorNumber
street
city
state
district
postalCode
}

class Request{
status
date
}

class Property{
area
distanceFromTheCityCentre
}

class Residence{
numberOfBedrooms
numberOfBathrooms
numberOfParkingSpaces
availableEquipment
}

class House{
existenceOfABasement
inhabitableLoft
}

class Land{
}

class Sell{
price
}

class Rent{
pricePerMonth
contractDuration
}

class Photographs{
URI
}

class TaxNumber{
taxNumber
}

class Apartment{
}

class SunExposure{
direction
}

class PropertyType{
propertyType
}

Owner "1" --- "1" Address : has >
Owner "1" -- "1...*" Request : creates >
Owner "1" -- "1" TaxNumber : has >
Owner "1" -- "1" Contacts : has >

Agent "1" --- "1" Address : has >
Agent "1" --- "1...*" Request : reviews and publishes >
Agent "1" --- "1" TaxNumber : has >
Agent "1" --- "1" Contacts : has >
Agent "1" --- "1" CompanyBranch : works for >

Property "1" -- "1" PropertyType : has >
Property "1" --- "1...30" Photographs : has

Property "1" --- "1" Address : has >
PropertyType --> Residence : can be
PropertyType --> Land : can be

CompanyBranch "1" --- "1" Address : has >
CompanyBranch "1" -- "1" Contacts : has >

Residence <|-- House
Residence <|-- Apartment

Request --> Sell : can be
Request --> Rent : can be
Request "1"--"1...*" Property : announces >

SunExposure -- House : has <

@enduml