@startuml
'skinparam monochrome true
skinparam packageStyle rectangle
skinparam shadowing false
skinparam linetype polyline
skinparam linetype orto

skinparam classAttributeIconSize 0

'left to right direction

class Property{
-float price
-String typeOfProperty
+getPrice()
+getTypeOfProperty()
}

class Location{
-String city
-String state
+getCity()
+getState()
}

class Residence{
-int numberOfRooms
+getNumberOfRooms()
}

class DisplayPropertiesUI{
}

class DisplayPropertiesController{
+DisplayPropertiesController(announcementsRepository)
+displayProperties(number of rooms, type of business, type of property)
+getAnnouncements()
+sortPropertiesCity()
+sortPropertiesPrice()
+sortPropertiesState()
}

class Announcement{
+compare(announcement1, announcement2)
+getProperty()
+getPropertyByCharacteristics(number of rooms, type of business, type of property)
}

class Repositories{
-Repositories()
+getInstance(): Repositories
+getAnnouncementsRepository()
}

class AnnouncementsRepository{
-ArrayList<Announcement> announcements
+getAnnouncementByCharacteristics(number of rooms, type of business, type of property)
+getAnnouncement()
+sortPropertiesCityAscending()
+sortPropertiesCityDescending()
+sortPropertiesPriceAscending()
+sortPropertiesPriceDescending()
+sortPropertiesStateAscending()
+sortPropertiesStateDescending()
}


Repositories -> Repositories : instance

DisplayPropertiesUI .> DisplayPropertiesController
DisplayPropertiesController .> Repositories : repositories

Repositories -> "1" AnnouncementsRepository

DisplayPropertiesController ..> AnnouncementsRepository : publishedAnnouncementsRepository

AnnouncementsRepository "1" --> "*" Announcement
DisplayPropertiesController ..> "1" Announcement : announcement
Announcement "1" --> "1" Property : contains
Property <|-- Residence
Property "1" --> "1" Location : has a

@enduml