@startuml
'skinparam monochrome true
skinparam packageStyle rectangle
skinparam shadowing false
skinparam linetype polyline
'skinparam linetype orto

skinparam classAttributeIconSize 0

'left to right direction

class ShowLegacyDataUI{
+showLegacyDataList();
+addAnnouncements();
}

class ShowLegacyDataController{
+showLegacyDataList();
+createAnnouncements();
+addAnnouncements();
}

class AgencyRepository{
-ArrayList<Agency> listOfAgency;
+AgencyRepository();
+getListOfAnnoucement();
+addAgency(Agency agency);
}

class Repositories{
-AgencyRepository agencyRepository;
+getAgencyRepository();
+getLegacyDataRepository();
+getInstance();
}

class LegacyDataRepository{
+getAvaiableFiles();
}


class Announcement{
-Request request;
-double comission;
-Date publicationDate;
-ComissionType comissionType
}

class Agency{
   -int id
   -String designation
    -String location
    -String email
    -intphoneNumber
    -ArrayList<Employee> employees
    -ArrayList<Request> requests
    -ArrayList<Announcement> listOfAnnoucement
    +addAnnouncement()
    +addRequest()
}

ShowLegacyDataUI ..> ShowLegacyDataController
ShowLegacyDataController ..> Repositories : repositories
Repositories --> AgencyRepository
Repositories --> LegacyDataRepository
AgencyRepository "1" --> "0...*" Agency
Agency "1" --> "0..*" Announcement : has


@enduml