@startuml
skinparam monochrome true
skinparam packageStyle rectangle
skinparam shadowing false

'left to right direction

skinparam classAttributeIconSize 0

hide circle
hide methods

title Domain Model US020

class Property{
    area
    distanceFromCityCenter
    photographs
}

class Agent{}

class Client{
    name
    taxNumber
    emailAddress
    address
    phoneNumber
    passportCardNumber
}

class Apartment{
    numOfBedrooms
    numOfBathrooms
    numOfParkingSpaces
    availableEquipment
}

class House{
    numOfBedrooms
    numOfBathrooms
    numOfParkingSpaces
    availableEquipment
    hasBasement
    hasInhabitableLoft
    sunExposure
}

class Employee{
    name
    citizenCard
    taxNumber
    address
    emailAddress
    phoneNumber
}

class Announcement{}

class BookingtRequest{}

Agent-->Announcement: publishes
Announcement --> Property:has
BookingtRequest-->Announcement:has
Agent--> BookingtRequest : manages
Client --> BookingtRequest :requests
Property <|-- Apartment
Property <|-- House
Employee <|-- Agent
@enduml