@startuml
'skinparam monochrome true
skinparam packageStyle rectangle
skinparam shadowing false
skinparam linetype polyline

skinparam classAttributeIconSize 0


Title US017 - Class Diagram (UC)

class ListDealsUI{
}

class ListDealsController{
+getDeals()
}

class Repositories{
-Repositories
+getInstance() : Repositories
getOrdersRepository()
}

class OrderRepository{
+sortListByBubbleSort()
+sortListByInsertionSort()
}

class Order{
-int orderPrice
-int orderNumber
-boolean decision
-LocalDate date
+getAnnouncement()
+getOrderPrice()
+setAnnouncement()
+setOrderPrice()
+getDate()
+setDate()
+makeDecision(decision)
+getClientName()
+getClient()
+getOrderNumber()
}

ListDealsUI -.-> ListDealsController

ListDealsController -.-> Repositories

Repositories -> Repositories : instance

Repositories --> "1" OrderRepository : dealsRepository

ListDealsController -.-> OrderRepository

OrderRepository --> "1..*" Order : orders

@enduml