@startuml
skinparam monochrome true
skinparam packageStyle rectangle
skinparam shadowing false

'left to right direction

skinparam classAttributeIconSize 0

hide circle
hide methods

title Domain Model - US011

class Property{
area
price
distanceFromTheCityCenter
}

class Employee{
name
phoneNumber
emailAddress
taxNumber
passportCardNumber
}

class Decision{
decision
}

class Order{
orderNumber
clientEmail
price
announcement
}


class User{
name
phoneNumber
emailAddress
taxNumber
passportCardNumber
}

class Announcement{
localDate
property
comissionType
comission
requestType
}

class EmailService{
informationEmail
}


Employee "1" -- "*" Decision : makes >
Announcement "1" -- "1" Property : announces >
User "1" -- "1...*" Order : makes
Order "*" -- "1" Announcement : > on
Employee "1" --"*" Order : analyzes >
Decision "1" -- "1" Order : has <
Decision -- EmailService : depending on <
EmailService -- User : informing about the decision >

@enduml